<svg xmlns="http://www.w3.org/2000/svg" viewBox="0 0 327.94 279.75"><defs><style>.cls-1{fill:#e63d3d;}</style></defs><title>Ресурс 11</title><g id="Слой_2" data-name="Слой 2"><g id="Слой_1-2" data-name="Слой 1"><path class="cls-1" d="M245.89,0H82L58.26,40.55l15.27,7.64L91.81,17H236.13l72,122.83-72,122.83H91.81l-7.94-13.53a28.94,28.94,0,0,0-3-7.75c-6.87-12.78-5.68-37.88-4.78-48.74,1.4-5.87,2.12-11,3.44-9.12,2.21,3.2,12,8,16.52,7.73s9.54-6.14,10.39-4.23,24.95,20.43,41,27.29,23.44.59,25,1.86,8.18,8.06,12.4-.83,4.78-2.13,31.53-33.88,25.06-77.59,25.06-77.59c-14.29,60.14-51.84,68.42-56,67.3s1.49-8.66,6.15-14.54,2.91-17.08,2.49-16.06S182.19,153,173.64,154.33s-10.17-3.78-16.64-9.48-8.36-25.42-7.07-26,9.18-5.66,15.35-9.85,7.17-14.65,6-16.29-22.1,12.43-25.74,14.08-4.48.15-5.66-4.92S134,83.77,131.64,84.74s-4,6.53-10.16,7.74-15-12.86-20.77-18C95.53,69.82,83,62.6,68.84,56.2L53.67,48.37,0,139.88,82,279.75H245.89l82-139.87Z"/></g></g></svg>